<svg xmlns="http://www.w3.org/2000/svg" x="0px" y="0px" width="30" height="30" viewBox="0 0 30 30" style=" fill:#000000;"><path fill="#c2e8ff" d="M6.5,2.5l20,0V24c0,0.3-0.2,0.5-0.5,0.5l-19.5,0V2.5z"></path><path fill="#7496c4" d="M26,3v21L7,24V3L26,3 M27,2L6,2v23l20,0c0.6,0,1-0.4,1-1V2L27,2z"></path><path fill="#8bb7f0" d="M4.5,25.5V4c0-0.8,0.7-1.5,1.5-1.5h0.5v23H4.5z"></path><path fill="#7496c4" d="M6,3v22H5V4C5,3.4,5.4,3,6,3 M7,2H6C4.9,2,4,2.9,4,4v22h3V2L7,2z"></path><path fill="#dbf2ff" d="M7 3H8V27H7z"></path><path fill="#8bb7f0" d="M7 3H6C5.4 3 5 3.4 5 4v23h2V3zM12.5 15.5c-.6 0-1-.4-1-1v-1c0-.6.4-1 1-1h1v3H12.5z"></path><path fill="#4e7ab5" d="M13,13v2h-0.5c-0.3,0-0.5-0.2-0.5-0.5v-1c0-0.3,0.2-0.5,0.5-0.5H13 M14,12h-1.5 c-0.8,0-1.5,0.7-1.5,1.5v1c0,0.8,0.7,1.5,1.5,1.5H14V12L14,12z"></path><path fill="#8bb7f0" d="M13.5 15.8L13.5 12.2 15.5 10.2 15.5 17.8z"></path><path fill="#4e7ab5" d="M15 11.4v5.2l-1-1v-3.2L15 11.4M16 9l-3 3v4l3 3V9L16 9zM18.4 15.9c-.2 0-.4-.1-.5-.4C17.9 15.3 18 15 18.3 15c.4-.1.7-.5.7-1s-.3-.8-.7-1C18 13 17.9 12.7 18 12.4c.1-.3.4-.4.6-.3.9.3 1.4 1 1.4 1.9s-.6 1.7-1.4 1.9C18.5 15.9 18.5 15.9 18.4 15.9z"></path><path fill="#4e7ab5" d="M19.9,17.4c-0.2,0-0.3-0.1-0.4-0.2c-0.2-0.2-0.1-0.5,0.1-0.7C20.5,15.9,21,15,21,14s-0.5-1.9-1.4-2.5 c-0.2-0.2-0.3-0.5-0.1-0.7c0.2-0.2,0.5-0.3,0.7-0.1c1.1,0.7,1.8,2,1.8,3.3s-0.7,2.6-1.8,3.3C20.1,17.4,20,17.4,19.9,17.4z"></path><g><path fill="#fff" d="M6,27.5c-0.8,0-1.5-0.7-1.5-1.5s0.7-1.5,1.5-1.5h20.5v0.3C26.3,25,26,25.4,26,26 c0,0.6,0.3,1,0.5,1.2v0.3H6z"></path><path fill="#7496c4" d="M25.7,25c-0.1,0.3-0.2,0.6-0.2,1c0,0.4,0.1,0.7,0.2,1H6c-0.6,0-1-0.4-1-1s0.4-1,1-1H25.7 M27,24H6 c-1.1,0-2,0.9-2,2s0.9,2,2,2h21v-1c0,0-0.5-0.3-0.5-1s0.5-1,0.5-1V24L27,24z"></path></g></svg>